<svg class="app-ic-svg" width="32" height="32" viewBox="0 0 32 32" fill="" xmlns="http://www.w3.org/2000/svg">
<path d="M9.85355 9.14645C9.65829 8.95118 9.34171 8.95118 9.14645 9.14645C8.95118 9.34171 8.95118 9.65829 9.14645 9.85355L15.2632 15.9703L9.14679 22.0867C8.95153 22.282 8.95153 22.5986 9.14679 22.7938C9.34205 22.9891 9.65864 22.9891 9.8539 22.7938L15.9703 16.6774L22.0865 22.7936C22.2818 22.9889 22.5983 22.9889 22.7936 22.7936C22.9889 22.5983 22.9889 22.2818 22.7936 22.0865L16.6774 15.9703L22.794 9.85376C22.9892 9.6585 22.9892 9.34192 22.794 9.14665C22.5987 8.95139 22.2821 8.95139 22.0868 9.14665L15.9703 15.2632L9.85355 9.14645Z"/>
</svg>
