
<svg id="temp" data-name="Layer Sync" xmlns="http://www.w3.org/2000/svg" viewBox="0 0 72 70"><defs><style>.cls-1{fill:#2b357c;}.cls-2{fill:#f6921e;}</style></defs><rect class="cls-1" x="2.8" y="10.88" width="16.4" height="16.42"/><rect class="cls-2" x="48.91" y="5.63" width="16.72" height="16.72" transform="translate(9.53 48.58) rotate(-49.65)"/><rect class="cls-1" x="22.3" y="10.88" width="16.4" height="16.42"/><rect class="cls-1" x="2.8" y="30.39" width="16.4" height="16.42"/><rect class="cls-1" x="22.3" y="30.39" width="16.4" height="16.42"/><rect class="cls-2" x="41.87" y="30.39" width="16.4" height="16.42"/><rect class="cls-1" x="2.82" y="49.92" width="16.4" height="16.41"/><rect class="cls-1" x="22.33" y="49.92" width="16.4" height="16.41"/><rect class="cls-1" x="41.9" y="49.92" width="16.4" height="16.41"/><rect class="cls-1" x="2.8" y="10.88" width="16.4" height="16.42"/><rect class="cls-2" x="48.91" y="5.63" width="16.72" height="16.72" transform="translate(9.53 48.58) rotate(-49.65)"/><rect class="cls-1" x="22.3" y="10.88" width="16.4" height="16.42"/><rect class="cls-1" x="2.8" y="30.39" width="16.4" height="16.42"/><rect class="cls-1" x="22.3" y="30.39" width="16.4" height="16.42"/><rect class="cls-2" x="41.87" y="30.39" width="16.4" height="16.42"/><rect class="cls-1" x="2.82" y="49.92" width="16.4" height="16.41"/><rect class="cls-1" x="22.33" y="49.92" width="16.4" height="16.41"/><rect class="cls-1" x="41.9" y="49.92" width="16.4" height="16.41"/></svg>